<svg xmlns="http://www.w3.org/2000/svg" xmlns:xlink="http://www.w3.org/1999/xlink" viewBox="0 0 1261.96 568.01"><defs><style>.cls-1{fill:url(#linear-gradient);}.cls-2{fill:url(#linear-gradient-2);}.cls-3{fill:url(#linear-gradient-3);}.cls-4{fill:url(#linear-gradient-4);}.cls-5{fill:url(#linear-gradient-5);}.cls-6{fill:url(#linear-gradient-6);}.cls-7{fill:url(#linear-gradient-7);}.cls-8{fill:url(#linear-gradient-8);}.cls-9{fill:url(#linear-gradient-9);}</style><linearGradient id="linear-gradient" x1="748.47" y1="244.07" x2="746.61" y2="200.89" gradientUnits="userSpaceOnUse"><stop offset="0.05" stop-color="#e9bfff"/><stop offset="0.08" stop-color="#e9c6ff"/><stop offset="0.19" stop-color="#e9d7ff"/><stop offset="0.32" stop-color="#e9e2ff"/><stop offset="0.5" stop-color="#e9e9ff"/><stop offset="1" stop-color="#e9ebff"/></linearGradient><linearGradient id="linear-gradient-2" x1="1059.73" y1="226.31" x2="1057.76" y2="180.43" xlink:href="#linear-gradient"/><linearGradient id="linear-gradient-3" x1="458.25" y1="198.84" x2="457.05" y2="171.04" xlink:href="#linear-gradient"/><linearGradient id="linear-gradient-4" x1="609.75" y1="258.27" x2="599.3" y2="15.82" xlink:href="#linear-gradient"/><linearGradient id="linear-gradient-5" x1="1128.99" y1="209.49" x2="1128.96" y2="208.75" xlink:href="#linear-gradient"/><linearGradient id="linear-gradient-6" x1="243.52" y1="287.73" x2="231.84" y2="16.79" xlink:href="#linear-gradient"/><linearGradient id="linear-gradient-7" x1="884.35" y1="249.17" x2="881.59" y2="185.33" xlink:href="#linear-gradient"/><linearGradient id="linear-gradient-8" x1="590.33" y1="505.76" x2="824.33" y2="-305.24" gradientUnits="userSpaceOnUse"><stop offset="0.05" stop-color="#350055"/><stop offset="0.58" stop-color="#9b85b5"/><stop offset="1" stop-color="#e9ebff"/></linearGradient><linearGradient id="linear-gradient-9" x1="620.54" y1="-64.57" x2="636.54" y2="567.43" xlink:href="#linear-gradient-8"/></defs><title>Asset 2</title><g id="Layer_2" data-name="Layer 2"><g id="Layer_1-2" data-name="Layer 1"><path class="cls-1" d="M777,239l-57.85-6.79C739.27,235,758.88,237.27,777,239Z"/><path class="cls-2" d="M1128.5,209.44,990.2,225.27C1043.93,220.38,1100,215.38,1128.5,209.44Z"/><path class="cls-3" d="M440,192.62s-7.39,2-20.18,5.44c31.82-5.48,58.58-8.76,76.42-8.34l-3.29-.79Z"/><path class="cls-4" d="M496.24,189.72l133.43,32,89.51,10.51c-84.53-11.36-177.53-29.33-205.66-40C509.46,190.69,503.61,189.89,496.24,189.72Z"/><path class="cls-5" d="M1129.19,209.37l.27-.13-1,.2Z"/><path class="cls-6" d="M419.82,198.06C306.61,217.55,129.47,264.8,62.67,271.69,146.08,269.39,354.18,215.55,419.82,198.06Z"/><path class="cls-7" d="M777,239l57,6.69,78.69-11.59,77.49-8.87c-53,4.83-103.68,9.55-123.68,15C851.94,244.18,818.26,243.06,777,239Z"/><path class="cls-8" d="M1198.52,180.23c-21.48-22.78-31.78-88.58-45-105-10.25-12.72-101.21-25.53-101-30,.35-7.82-140.08-35.44-221-43-172.89-16.13-339.7,60.59-369.32,56-43.49-6.69-393.61,107-393.61,107S30.68,379.39.58,490.89c-15.12,56,269.72,89.75,563.31,72.67,291.12-16.93,590.84-84.43,615.26-96.08,49.07-23.42,70.25-126,81.4-137.15C1267.05,323.83,1251.86,236.81,1198.52,180.23Zm-32.33,192.14L949.71,397.14,871,408.73l-204.35-24L530,351.93l-53,3.69S80,464.73,65,426.73c0,0,30.5-14.5,40.5-30.5s61-71,69-84,100-37,133-50,213-23,282,0,324-14,324-14,91,11,109,30,128,47,128,47S1178.87,367.5,1166.19,372.37Z"/><path class="cls-9" d="M1184.52,270.23c-33-17-162-129-181-122s-266-49-298-50-166-30-190-20-330,76-330,76-45,54-58,107C119.35,294.53,43.23,396,65.35,426.57c3.3-1.61,30.77-15.31,40.17-30.34,10-16,61-71,69-84s100-37,133-50,213-23,282,0,324-14,324-14,91,11,109,30,128,47,128,47,27.92,41.63,15.94,47c10.29-2.19,16.81-4.51,18.06-7C1192.52,349.23,1217.52,287.23,1184.52,270.23Z"/></g></g></svg>