<svg xmlns="http://www.w3.org/2000/svg" xmlns:xlink="http://www.w3.org/1999/xlink" viewBox="0 0 896 360.16"><defs><style>.cls-1{fill:url(#linear-gradient);}.cls-2{fill:#fff;stroke:#000;stroke-miterlimit:10;}</style><linearGradient id="linear-gradient" x1="-80.61" y1="437.92" x2="745.47" y2="107.98" gradientUnits="userSpaceOnUse"><stop offset="0.19" stop-color="#30007f"/><stop offset="0.33" stop-color="#3f00a7"/><stop offset="0.55" stop-color="#5700e9"/><stop offset="0.68" stop-color="#7333ff"/><stop offset="0.99" stop-color="#8b55ff"/></linearGradient></defs><title>mountain</title><g id="Layer_2" data-name="Layer 2"><g id="Layer_1-2" data-name="Layer 1"><path class="cls-1" d="M0,356.16l31-36,25-49,51-47,58-86,17-37.71L226,3.16l72,142,30,42,44-34,63,58,55-32,80-28,77,18,68,43,24,42,56,38s52,41,56,43,45,25,45,25Z"/><polygon class="cls-2" points="186.44 88.7 200 102.16 230 92.16 256 109.16 275.57 98.93 226 1.16 186.44 88.7"/><path class="cls-2" d="M515.49,168.24,536,180.16s43,5,48,7,66,0,66,0l17,12,34,15h16.29l-.29-4-70-42-77-19Z"/><polygon class="cls-2" points="355.44 163.95 362 173.16 376 173.16 386 176.16 394.5 171.87 372 149.16 355.44 163.95"/></g></g></svg>